<svg width="21" height="20" viewBox="0 0 21 20" fill="none" xmlns="http://www.w3.org/2000/svg">
<path fill-rule="evenodd" clip-rule="evenodd" d="M0.499756 8.66993C0.499756 3.88166 4.3381 0 9.07295 0C11.3467 0 13.5273 0.913436 15.1351 2.53936C16.7429 4.16529 17.6461 6.37052 17.6461 8.66993C17.6461 13.4582 13.8078 17.3399 9.07295 17.3399C4.3381 17.3399 0.499756 13.4582 0.499756 8.66993ZM17.5043 15.6543L20.0576 17.7164H20.102C20.6185 18.2388 20.6185 19.0858 20.102 19.6082C19.5854 20.1306 18.7479 20.1306 18.2313 19.6082L16.1124 17.1784C15.9121 16.9766 15.7995 16.7023 15.7995 16.4164C15.7995 16.1304 15.9121 15.8561 16.1124 15.6543C16.4987 15.2704 17.118 15.2704 17.5043 15.6543Z" fill="#6E9CFD"/>
</svg>
